<?xml version="1.0" encoding="UTF-8"?>
<svg version="1.1" xmlns="http://www.w3.org/2000/svg" width="500" height="500">
<path d="M0 0 C1.51787109 0.4021875 1.51787109 0.4021875 3.06640625 0.8125 C19.33730704 5.42290872 31.46437789 13.75570486 43 26 C46.80858597 24.23172794 49.05090508 22.01611981 52 19 C67.64614978 3.71856233 87.78258925 -2.57681164 109.27832031 -2.35107422 C132.41394155 -1.63897912 152.36700217 7.90920852 168.203125 24.75 C174.92841585 32.29860707 180.6626214 41.45354495 184 51 C184.36996094 51.96808594 184.73992187 52.93617188 185.12109375 53.93359375 C187.94475372 62.54135996 188.39081722 70.67649419 188.4375 79.6875 C188.44749023 80.81526855 188.45748047 81.94303711 188.46777344 83.10498047 C188.17922328 111.33755243 172.26861009 130.37619471 153.28515625 149.2109375 C151.66221994 150.83402915 150.03995329 152.45779063 148.4183197 154.08218384 C145.03656751 157.46531217 141.64802324 160.84143438 138.25415039 164.21240234 C133.92404812 168.51406605 129.60975071 172.83118118 125.30021 177.15343285 C121.95909017 180.50153476 118.61059842 183.8421843 115.25979424 187.18059158 C113.66668106 188.76921889 112.07561108 190.3598981 110.4867115 191.95273972 C91.67370389 210.79057723 72.28915338 224.14735674 44.5 224.25 C21.87111276 224.21753055 1.13808645 216.01134755 -15 200 C-16.6266555 198.17284975 -18.2034601 196.32282897 -19.73828125 194.41796875 C-20.96479293 192.8630558 -20.96479293 192.8630558 -23 192 C-23 191.34 -23 190.68 -23 190 C-23.66 190 -24.32 190 -25 190 C-25 189.34 -25 188.68 -25 188 C-25.66 188 -26.32 188 -27 188 C-28.32789612 186.6459198 -28.32789612 186.6459198 -29.91625977 184.70385742 C-34.24907057 179.61292854 -38.9833893 174.96437868 -43.75538445 170.29171181 C-45.94183822 168.14807575 -48.11834394 165.99444808 -50.29562473 163.84150219 C-54.32854047 159.85388765 -58.36518716 155.87024897 -62.41870117 151.90356445 C-65.25845885 149.1238728 -68.08526313 146.33154105 -70.90445137 143.53099632 C-71.96779499 142.47923514 -73.03560902 141.43197009 -74.10832024 140.38976479 C-90.11330661 124.82859512 -99.60084209 105.50998169 -101 83 C-101.06445312 82.30519531 -101.12890625 81.61039062 -101.1953125 80.89453125 C-102.22445183 60.96353288 -93.53885823 40.54869711 -80.625 25.8125 C-60.11578656 3.95672204 -29.96327093 -8.54705946 0 0 Z " fill="#9481B7" transform="translate(206,143)"/>
<path d="M0 0 C3.003567 1.2014268 5.54786069 2.89816631 8 5 C8 5.66 8 6.32 8 7 C8.5775 7.2475 9.155 7.495 9.75 7.75 C12.32939979 9.18299988 14.06121592 10.78424676 16 13 C16 13.66 16 14.32 16 15 C16.5775 15.226875 17.155 15.45375 17.75 15.6875 C20.59530878 17.34726345 21.93653334 19.42066667 24 22 C26.09207039 23.8667705 28.22574996 25.6675424 30.390625 27.44921875 C31.18726563 28.21685547 31.18726563 28.21685547 32 29 C32 29.66 32 30.32 32 31 C32.5775 31.226875 33.155 31.45375 33.75 31.6875 C36.59530878 33.34726345 37.93653334 35.42066667 40 38 C42.09207039 39.8667705 44.22574996 41.6675424 46.390625 43.44921875 C47.18726563 44.21685547 47.18726563 44.21685547 48 45 C48 45.66 48 46.32 48 47 C48.99 47.33 49.98 47.66 51 48 C51 48.99 51 49.98 51 51 C52.65 51.66 54.3 52.32 56 53 C56 53.66 56 54.32 56 55 C56.66 55 57.32 55 58 55 C58 55.66 58 56.32 58 57 C58.66 57 59.32 57 60 57 C61 58.66666667 62 60.33333333 63 62 C64.3303125 63.3303125 64.3303125 63.3303125 65.6875 64.6875 C68 67 68 67 68 69 C68.66 69 69.32 69 70 69 C70.68359375 70.62760417 71.3671875 72.25520833 72.05078125 73.8828125 C72.79097297 75.53377509 73.60120138 77.15339177 74.4375 78.7578125 C83.11780622 96.76944791 84.05190994 119.21727607 78.4140625 138.30078125 C75.39065231 146.21008913 71.70260087 153.94609869 67 161 C66.34 161 65.68 161 65 161 C64.93683594 161.71414063 64.87367188 162.42828125 64.80859375 163.1640625 C62.05667651 172.81571428 48.38045917 180.89329136 40.19921875 185.6171875 C20.75067195 195.97257268 -1.88112855 197.96297547 -23 192 C-33.61361423 188.60364345 -42.1657434 183.79179616 -51 177 C-52.04800781 176.21109375 -52.04800781 176.21109375 -53.1171875 175.40625 C-65.65925388 165.3725969 -71.88354118 150.73293565 -77 136 C-77.37382812 134.9275 -77.74765625 133.855 -78.1328125 132.75 C-79.36372294 128.84657231 -79.76044595 125.06153011 -80 121 C-80.07734375 119.70835937 -80.1546875 118.41671875 -80.234375 117.0859375 C-81.08264233 95.93375191 -74.24874587 75.84972855 -60 60 C-58.16191925 58.09588042 -56.30301264 56.23133261 -54.3828125 54.41015625 C-52.88627875 53.02832853 -52.88627875 53.02832853 -52 51 C-51.34 51 -50.68 51 -50 51 C-49.67 50.01 -49.34 49.02 -49 48 C-47.546875 46.60546875 -47.546875 46.60546875 -45.75 45.1875 C-43.36598529 43.22419377 -41.557982 41.46731165 -39.5625 39.0625 C-36.89421285 35.87357146 -34.02431938 33.35853337 -30.86328125 30.6796875 C-28.62353532 28.66062933 -26.86218438 26.36354172 -25 24 C-24.34 24 -23.68 24 -23 24 C-22.731875 23.360625 -22.46375 22.72125 -22.1875 22.0625 C-21 20 -21 20 -18 19 C-17.505 17.515 -17.505 17.515 -17 16 C-16.34 16 -15.68 16 -15 16 C-14.62875 15.14148438 -14.62875 15.14148438 -14.25 14.265625 C-12.80683801 11.64989389 -11.11783778 9.85226544 -9 7.75 C-8.29875 7.04359375 -7.5975 6.3371875 -6.875 5.609375 C-5 4 -5 4 -3 4 C-2.67 3.01 -2.34 2.02 -2 1 C-1.34 0.67 -0.68 0.34 0 0 Z " fill="#B094E9" transform="translate(249,172)"/>
<path d="M0 0 C1.51787109 0.4021875 1.51787109 0.4021875 3.06640625 0.8125 C19.37365582 5.43320826 31.40191442 13.79326853 43 26 C43.99 26.99 43.99 26.99 45 28 C44.34 28 43.68 28 43 28 C43 28.66 43 29.32 43 30 C41.49609375 31.4453125 41.49609375 31.4453125 39.4375 33.125 C36.50505473 35.60828552 33.91659663 38.12702421 31.4375 41.0625 C28.66795379 44.34138804 25.72696354 47.08911895 22.3828125 49.7734375 C20.85896891 50.97175539 20.85896891 50.97175539 20 53 C19.34 53 18.68 53 18 53 C17.773125 53.5775 17.54625 54.155 17.3125 54.75 C15.65273655 57.59530878 13.57933333 58.93653334 11 61 C9.1332295 63.09207039 7.3324576 65.22574996 5.55078125 67.390625 C5.03902344 67.92171875 4.52726562 68.4528125 4 69 C3.34 69 2.68 69 2 69 C1.505 70.485 1.505 70.485 1 72 C-0.59375 73.53515625 -0.59375 73.53515625 -2.5 75.0625 C-5.18106401 77.17721767 -5.18106401 77.17721767 -7 80 C-7.66 80 -8.32 80 -9 80 C-9.25523437 80.58910156 -9.51046875 81.17820312 -9.7734375 81.78515625 C-11.12126499 84.21897212 -12.55733519 85.58813446 -14.625 87.4375 C-27.91281729 100.41181162 -36.02563274 120.57736526 -36.3190918 139.09936523 C-36.29122733 148.98299375 -35.62467229 158.27606582 -32.4375 167.6875 C-32.18081543 168.45626465 -31.92413086 169.2250293 -31.65966797 170.01708984 C-29.01584745 177.56172693 -25.26519241 184.26662518 -21 191 C-21.66 191.33 -22.32 191.66 -23 192 C-23 191.34 -23 190.68 -23 190 C-23.66 190 -24.32 190 -25 190 C-25 189.34 -25 188.68 -25 188 C-25.66 188 -26.32 188 -27 188 C-28.32789612 186.6459198 -28.32789612 186.6459198 -29.91625977 184.70385742 C-34.24907057 179.61292854 -38.9833893 174.96437868 -43.75538445 170.29171181 C-45.94183822 168.14807575 -48.11834394 165.99444808 -50.29562473 163.84150219 C-54.32854047 159.85388765 -58.36518716 155.87024897 -62.41870117 151.90356445 C-65.25845885 149.1238728 -68.08526313 146.33154105 -70.90445137 143.53099632 C-71.96779499 142.47923514 -73.03560902 141.43197009 -74.10832024 140.38976479 C-90.11330661 124.82859512 -99.60084209 105.50998169 -101 83 C-101.06445312 82.30519531 -101.12890625 81.61039062 -101.1953125 80.89453125 C-102.22445183 60.96353288 -93.53885823 40.54869711 -80.625 25.8125 C-60.11578656 3.95672204 -29.96327093 -8.54705946 0 0 Z " fill="#6F51B7" transform="translate(206,143)"/>
<path d="M0 0 C0 0.33 0 0.66 0 1 C-1.54107422 1.05607422 -1.54107422 1.05607422 -3.11328125 1.11328125 C-17.21352518 1.61643826 -17.21352518 1.61643826 -30 7 C-35.57312993 8.90728779 -41.06480135 10.48123232 -47 10 C-44.35487774 6.66442303 -40.91664578 5.67779551 -37 4.4375 C-35.98643433 4.1132605 -35.98643433 4.1132605 -34.95239258 3.7824707 C-23.18654806 0.11271092 -12.23779355 -0.24233255 0 0 Z " fill="#534083" transform="translate(196,141)"/>
<path d="M0 0 C0 0.66 0 1.32 0 2 C-0.99 2 -1.98 2 -3 2 C-3.23976563 2.58523437 -3.47953125 3.17046875 -3.7265625 3.7734375 C-5.25307089 6.44248591 -6.92650983 7.77846422 -9.375 9.625 C-10.14585937 10.21539062 -10.91671875 10.80578125 -11.7109375 11.4140625 C-14 13 -14 13 -16.22265625 14.0859375 C-18.55842047 15.28718767 -18.90669361 16.66761303 -20 19 C-20.99 19.66 -21.98 20.32 -23 21 C-23.66 20.34 -24.32 19.68 -25 19 C-21.53747073 14.57493927 -17.99905954 11.15808836 -13.5 7.8125 C-12.94441406 7.38775391 -12.38882812 6.96300781 -11.81640625 6.52539062 C-3.19030667 0 -3.19030667 0 0 0 Z " fill="#786D91" transform="translate(276,150)"/>
<path d="M0 0 C-5.56023005 6.09831682 -12.44461301 10.68300083 -20 14 C-20.66 14 -21.32 14 -22 14 C-21.67 13.01 -21.34 12.02 -21 11 C-20.34 10.67 -19.68 10.34 -19 10 C-19.33 9.34 -19.66 8.68 -20 8 C-15.82262526 6.40861915 -12.46839215 5.78721942 -8 6 C-8 4.68 -8 3.36 -8 2 C-4.77208445 -0.1519437 -3.71599191 -0.20086443 0 0 Z " fill="#907FB6" transform="translate(304,346)"/>
<path d="M0 0 C2.97 5.28 5.94 10.56 9 16 C8.34 16.33 7.68 16.66 7 17 C7 16.34 7 15.68 7 15 C6.34 15 5.68 15 5 15 C5 14.34 5 13.68 5 13 C4.34 13 3.68 13 3 13 C1.37890625 11.390625 1.37890625 11.390625 -0.4375 9.25 C-1.03433594 8.55390625 -1.63117188 7.8578125 -2.24609375 7.140625 C-3.89081098 5.13326411 -5.46126108 3.08929688 -7 1 C-2.25 0 -2.25 0 0 0 Z " fill="#6D53AC" transform="translate(176,318)"/>
<path d="M0 0 C0.66 0.66 1.32 1.32 2 2 C-3.28 7.28 -8.56 12.56 -14 18 C-14.33 17.01 -14.66 16.02 -15 15 C-14.5875 14.62875 -14.175 14.2575 -13.75 13.875 C-11.81642884 11.91969309 -11.81642884 11.91969309 -10.0625 8.9375 C-7.98804317 5.98297057 -7.15009221 5.37816534 -4 4 C-2.62913085 2.70529025 -1.28659163 1.37849103 0 0 Z " fill="#8D7EAF" transform="translate(329,318)"/>
<path d="M0 0 C0.33 0 0.66 0 1 0 C1.06058594 0.63808594 1.12117188 1.27617187 1.18359375 1.93359375 C1.26738281 2.75988281 1.35117188 3.58617187 1.4375 4.4375 C1.55931641 5.67306641 1.55931641 5.67306641 1.68359375 6.93359375 C1.78930815 8.98662025 1.78930815 8.98662025 3 10 C4.71249434 15.71248111 5.21586845 21.06361776 5 27 C0.3878477 20.08177156 -0.46257644 10.19570931 -1 2 C-0.67 1.34 -0.34 0.68 0 0 Z " fill="#4D3D78" transform="translate(106,224)"/>
<path d="M0 0 C0.556875 0.28875 1.11375 0.5775 1.6875 0.875 C4.00534192 2.08822678 4.00534192 2.08822678 6.6875 2.75 C7.450625 3.1625 8.21375 3.575 9 4 C9.86272825 7.11909446 10 9.7724251 10 13 C5.73407468 9.70360316 2.74039221 6.74298651 0 2 C0 1.34 0 0.68 0 0 Z " fill="#624B99" transform="translate(118,265)"/>
<path d="M0 0 C1.07174763 3.65188082 0.76411467 6.26432828 0 10 C-1.65 9.67 -3.3 9.34 -5 9 C-5.28875 9.639375 -5.5775 10.27875 -5.875 10.9375 C-7 13 -7 13 -9 14 C-7.65070536 10.16336928 -5.92248975 7.34827431 -3.375 4.1875 C-2.42753906 3.00220703 -2.42753906 3.00220703 -1.4609375 1.79296875 C-0.97882813 1.20128906 -0.49671875 0.60960937 0 0 Z " fill="#59448C" transform="translate(126,168)"/>
<path d="M0 0 C0.66 0.99 1.32 1.98 2 3 C1.34 3 0.68 3 0 3 C0.04125 4.093125 0.0825 5.18625 0.125 6.3125 C0 10 0 10 -2 13 C-2.38499891 14.65549531 -2.72793135 16.3222433 -3 18 C-3.66 18 -4.32 18 -5 18 C-4.51030705 11.38914524 -2.66557258 6.05022986 0 0 Z " fill="#544081" transform="translate(113,187)"/>
<path d="M0 0 C5.76044212 0.60636233 10.72014369 2.75658279 16 5 C15.01 5.66 14.02 6.32 13 7 C12.01 6.67 11.02 6.34 10 6 C9.01 6.33 8.02 6.66 7 7 C7 6.01 7 5.02 7 4 C6.34 4 5.68 4 5 4 C5 3.34 5 2.68 5 2 C3.35 1.67 1.7 1.34 0 1 C0 0.67 0 0.34 0 0 Z " fill="#5E5576" transform="translate(334,144)"/>
<path d="M0 0 C6.16618181 -0.40214229 11.17745757 1.03181664 17 3 C14 4.5 14 4.5 11 6 C11 5.01 11 4.02 11 3 C8.03 3 5.06 3 2 3 C2 2.34 2 1.68 2 1 C1.34 0.67 0.68 0.34 0 0 Z " fill="#523F7E" transform="translate(197,142)"/>
<path d="M0 0 C0.66 0.33 1.32 0.66 2 1 C1.875 2.8125 1.875 2.8125 1 5 C-4.03571429 8 -4.03571429 8 -7 8 C-6.67 7.01 -6.34 6.02 -6 5 C-5.34 4.67 -4.68 4.34 -4 4 C-4.33 3.34 -4.66 2.68 -5 2 C-2.625 0.9375 -2.625 0.9375 0 0 Z " fill="#9E88CE" transform="translate(289,352)"/>
<path d="M0 0 C0.33 1.32 0.66 2.64 1 4 C-3.75 5.125 -3.75 5.125 -6 4 C-6.33 4.99 -6.66 5.98 -7 7 C-8.32 6.67 -9.64 6.34 -11 6 C-9.54550599 4.9944239 -8.08627557 3.99569565 -6.625 3 C-5.40683594 2.1646875 -5.40683594 2.1646875 -4.1640625 1.3125 C-2 0 -2 0 0 0 Z " fill="#5F4994" transform="translate(149,151)"/>
<path d="M0 0 C0.99 0.33 1.98 0.66 3 1 C0.03 3.97 -2.94 6.94 -6 10 C-6.66 9.34 -7.32 8.68 -8 8 C-5.33333333 5.33333333 -2.66666667 2.66666667 0 0 Z " fill="#85789E" transform="translate(369,278)"/>
<path d="M0 0 C0.66 0.33 1.32 0.66 2 1 C0.35 4.3 -1.3 7.6 -3 11 C-3.99 9.68 -4.98 8.36 -6 7 C-4.71034824 5.62437146 -3.37310707 4.29233607 -2 3 C-1.34 3 -0.68 3 0 3 C0 2.01 0 1.02 0 0 Z " fill="#776A91" transform="translate(385,256)"/>
<path d="M0 0 C0 0.66 0 1.32 0 2 C-0.99 2 -1.98 2 -3 2 C-3.226875 2.61875 -3.45375 3.2375 -3.6875 3.875 C-5.39877291 6.64563234 -6.90815414 7.14974239 -10 8 C-10.66 7.67 -11.32 7.34 -12 7 C-10.3790787 5.82767315 -8.75313167 4.6622923 -7.125 3.5 C-6.22007812 2.8503125 -5.31515625 2.200625 -4.3828125 1.53125 C-2 0 -2 0 0 0 Z " fill="#615778" transform="translate(276,150)"/>
<path d="M0 0 C1.65 3.3 3.3 6.6 5 10 C4.34 10 3.68 10 3 10 C3 9.34 3 8.68 3 8 C2.34 8 1.68 8 1 8 C1 7.34 1 6.68 1 6 C0.34 6 -0.32 6 -1 6 C-2.625 3.5 -2.625 3.5 -4 1 C-2 0 -2 0 0 0 Z " fill="#5F4C96" transform="translate(180,325)"/>
<path d="M0 0 C2.16099373 2.16099373 2.71563716 3.5210418 3.6875 6.375 C3.95949219 7.14585937 4.23148437 7.91671875 4.51171875 8.7109375 C5.04278009 11.20055308 4.81115526 12.61553018 4 15 C0.43122553 10.34507678 0.31824005 5.65150436 0 0 Z " fill="#584E6D" transform="translate(387,189)"/>
<path d="M0 0 C6.57142857 5.14285714 6.57142857 5.14285714 8 9 C7.01 9 6.02 9 5 9 C4.34 8.34 3.68 7.68 3 7 C2.01 7 1.02 7 0 7 C0.33 6.01 0.66 5.02 1 4 C0.61067144 1.85744207 0.61067144 1.85744207 0 0 Z " fill="#6D6086" transform="translate(371,166)"/>
<path d="M0 0 C1.29608947 0.93137592 2.58671632 1.8703566 3.875 2.8125 C4.59429687 3.33457031 5.31359375 3.85664063 6.0546875 4.39453125 C8 6 8 6 10 9 C7 9 7 9 5.3125 7.5 C4.879375 7.005 4.44625 6.51 4 6 C3.67 6.66 3.34 7.32 3 8 C0 2.25 0 2.25 0 0 Z " fill="#4B3775" transform="translate(233,155)"/>
<path d="M0 0 C0.33 0.66 0.66 1.32 1 2 C0.01 2 -0.98 2 -2 2 C-2 2.99 -2 3.98 -2 5 C-2.66 5 -3.32 5 -4 5 C-4 4.34 -4 3.68 -4 3 C-4.99 3.66 -5.98 4.32 -7 5 C-10.1875 5.125 -10.1875 5.125 -13 5 C-10.14415227 3.09610151 -8.0688238 2.30537823 -4.8125 1.375 C-3.91144531 1.11460937 -3.01039063 0.85421875 -2.08203125 0.5859375 C-1.39496094 0.39257812 -0.70789063 0.19921875 0 0 Z " fill="#5B5171" transform="translate(296,142)"/>
<path d="M0 0 C1.32 0.66 2.64 1.32 4 2 C-0.75 6.875 -0.75 6.875 -3 8 C-3 6.35 -3 4.7 -3 3 C-2.01 2.67 -1.02 2.34 0 2 C0 1.34 0 0.68 0 0 Z " fill="#7658B9" transform="translate(212,204)"/>
<path d="M0 0 C0.99 0.33 1.98 0.66 3 1 C1.63016497 4.16115776 1.0109362 4.9927092 -2 7 C-2.33 5.35 -2.66 3.7 -3 2 C-2.01 1.34 -1.02 0.68 0 0 Z " fill="#7658BA" transform="translate(220,196)"/>
<path d="M0 0 C4.2742558 1.5830577 6.26531794 4.50568404 9 8 C7.68 8.33 6.36 8.66 5 9 C4.01 7.02 3.02 5.04 2 3 C1.34 3 0.68 3 0 3 C0 2.01 0 1.02 0 0 Z " fill="#675B7D" transform="translate(362,158)"/>
<path d="M0 0 C2.9719385 1.12451727 5.33440687 2.22293791 8 4 C7.67 5.32 7.34 6.64 7 8 C5.83035398 6.8572081 4.66435444 5.71068285 3.5 4.5625 C2.8503125 3.92441406 2.200625 3.28632813 1.53125 2.62890625 C0 1 0 1 0 0 Z " fill="#65509B" transform="translate(130,280)"/>
<path d="M0 0 C0.66 0.66 1.32 1.32 2 2 C-1.465 4.97 -1.465 4.97 -5 8 C-3.95206337 3.80825346 -3.08236365 2.78407039 0 0 Z " fill="#887CA0" transform="translate(329,318)"/>
<path d="M0 0 C0.66 0 1.32 0 2 0 C1.39009109 3.55780196 0.4216319 6.6828589 -1 10 C-1.33 10 -1.66 10 -2 10 C-1.85950482 8.52031676 -1.71245174 7.04125484 -1.5625 5.5625 C-1.48128906 4.73878906 -1.40007812 3.91507813 -1.31640625 3.06640625 C-1 1 -1 1 0 0 Z " fill="#726786" transform="translate(389,245)"/>
<path d="M0 0 C0.66 0.33 1.32 0.66 2 1 C-0.75 6.875 -0.75 6.875 -3 8 C-3.66 7.34 -4.32 6.68 -5 6 C-3.35 4.02 -1.7 2.04 0 0 Z " fill="#665C7C" transform="translate(256,163)"/>
<path d="M0 0 C2.475 0.99 2.475 0.99 5 2 C4.67 3.65 4.34 5.3 4 7 C1.49962266 4.82575883 0.56371414 3.26954202 0 0 Z " fill="#5B4991" transform="translate(114,258)"/>
<path d="M0 0 C0.33 0.99 0.66 1.98 1 3 C-0.66666667 4.66666667 -2.33333333 6.33333333 -4 8 C-4.99 7.67 -5.98 7.34 -7 7 C-4.69 4.69 -2.38 2.38 0 0 Z " fill="#554287" transform="translate(134,160)"/>
<path d="M0 0 C0.66 0 1.32 0 2 0 C3.60725635 3.21451269 3.05748185 6.43612536 3 10 C0.70366176 6.55549263 0.45983515 4.06187717 0 0 Z " fill="#564087" transform="translate(108,241)"/>
<path d="M0 0 C0.99 0.33 1.98 0.66 3 1 C-0.465 3.97 -0.465 3.97 -4 7 C-4 5.68 -4 4.36 -4 3 C-2.68 2.67 -1.36 2.34 0 2 C0 1.34 0 0.68 0 0 Z " fill="#9C89C5" transform="translate(311,336)"/>
</svg>
