<?xml version="1.0" encoding="UTF-8"?>
<svg version="1.1" xmlns="http://www.w3.org/2000/svg" width="500" height="500">
<path d="M0 0 C3.17001652 3.1236906 6.07510017 6.38204366 8.87109375 9.84375 C9.91910156 11.13539062 9.91910156 11.13539062 10.98828125 12.453125 C28.98172884 35.4897188 39.5843081 63.60958853 40.87109375 92.84375 C40.93296875 94.23400391 40.93296875 94.23400391 40.99609375 95.65234375 C41.82765221 133.95600549 25.99942672 168.16049291 0.01019669 195.61467743 C-8.80542471 204.8010796 -17.84645553 213.77339931 -26.8359375 222.7890625 C-28.0317793 223.98896321 -29.22759191 225.18889302 -30.42337608 226.38885117 C-36.04049406 232.02493373 -41.65996323 237.65865886 -47.2823742 243.28946126 C-53.72243098 249.73929642 -60.15410497 256.19734296 -66.5788458 262.66243374 C-71.58278232 267.69669323 -76.59452607 272.7230967 -81.61199778 277.74386585 C-84.5923456 280.72654293 -87.56942464 283.71230382 -90.53818703 286.70651627 C-114.21661141 310.57759378 -114.21661141 310.57759378 -127.12890625 318.84375 C-127.95739075 319.37505524 -128.78587524 319.90636047 -129.63946533 320.45376587 C-131.46189553 321.58879515 -133.3007741 322.63988502 -135.19140625 323.65625 C-136.17826416 324.197052 -136.17826416 324.197052 -137.18505859 324.7487793 C-169.70035816 342.25551622 -207.01764216 345.42348533 -242.390625 335.31640625 C-263.05464563 329.07797259 -280.14210921 318.35379616 -295.96484375 303.76171875 C-298.17762226 301.71250769 -298.17762226 301.71250769 -301.12890625 299.84375 C-301.12890625 299.18375 -301.12890625 298.52375 -301.12890625 297.84375 C-301.78890625 297.84375 -302.44890625 297.84375 -303.12890625 297.84375 C-304.49803543 296.45238495 -304.49803543 296.45238495 -306.11846924 294.48132324 C-310.570823 289.2511481 -315.41151525 284.46682483 -320.29589844 279.64257812 C-321.3039608 278.64300306 -322.31175546 277.64315796 -323.31930542 276.64306641 C-325.47601207 274.50297167 -327.63410604 272.36428941 -329.79317474 270.22657776 C-333.22062896 266.83203222 -336.64188599 263.43128605 -340.06182861 260.0291748 C-340.64201461 259.45207528 -341.2222006 258.87497575 -341.81996799 258.28038836 C-343.00575865 257.10090487 -344.19154062 255.92141265 -345.37731409 254.74191189 C-353.32703128 246.83498415 -361.28117092 238.93259112 -369.25 231.04492188 C-374.64255606 225.70719108 -380.02587652 220.36032591 -385.39919782 215.00323057 C-388.23262488 212.17908991 -391.07029935 209.35956252 -393.91945648 206.55128479 C-405.5201588 195.1120181 -416.74074574 183.94207346 -425.12890625 169.84375 C-425.69517731 168.90856033 -426.26144836 167.97337067 -426.84487915 167.00984192 C-428.11891555 164.86034424 -429.29920386 162.69070452 -430.44140625 160.46875 C-430.84818604 159.68330811 -431.25496582 158.89786621 -431.67407227 158.08862305 C-447.51805305 126.56127428 -449.51523462 88.48790055 -438.6328125 55.06640625 C-432.65193829 37.79506498 -424.00355192 22.74746134 -412.12890625 8.84375 C-411.11763672 7.63138672 -411.11763672 7.63138672 -410.0859375 6.39453125 C-389.16338382 -17.88172866 -357.11961893 -34.98239163 -325.12890625 -38.15625 C-281.73136629 -40.77346931 -245.92772166 -29.68166427 -213.21875 -0.94140625 C-209.71258548 2.18830021 -206.37434568 5.44376583 -203.12890625 8.84375 C-199.28031018 7.27942458 -197.02077491 4.83905156 -194.19140625 1.84375 C-170.39446616 -22.61174717 -136.79156535 -37.5329949 -102.72265625 -39.125 C-63.5777421 -39.46539056 -28.85156935 -26.61543637 0 0 Z " fill="#944A6B" transform="translate(452.12890625,101.15625)"/>
<path d="M0 0 C3.73872495 1.69656426 5.6288741 3.61267729 8 7 C8 7.66 8 8.32 8 9 C8.58910156 9.27328125 9.17820312 9.5465625 9.78515625 9.828125 C15.56430084 12.88587346 20.11643364 17.82191152 24 23 C24 23.66 24 24.32 24 25 C24.56589844 25.25007813 25.13179687 25.50015625 25.71484375 25.7578125 C28.34132495 27.18554074 30.33789071 28.88000351 32.5625 30.875 C33.32691406 31.55304688 34.09132813 32.23109375 34.87890625 32.9296875 C36.85038641 34.85396832 38.49204806 36.69712132 40 39 C40 39.66 40 40.32 40 41 C40.5775 41.2475 41.155 41.495 41.75 41.75 C44.32939979 43.18299988 46.06121592 44.78424676 48 47 C48 47.66 48 48.32 48 49 C48.763125 49.2475 49.52625 49.495 50.3125 49.75 C53.26080945 51.12130672 54.35834532 52.2351079 56 55 C56 55.66 56 56.32 56 57 C56.639375 57.268125 57.27875 57.53625 57.9375 57.8125 C60 59 60 59 61 62 C63.01508358 62.73323796 63.01508358 62.73323796 65 63 C65 63.66 65 64.32 65 65 C65.66 65 66.32 65 67 65 C67.268125 65.61875 67.53625 66.2375 67.8125 66.875 C68.95556848 69.2995233 68.95556848 69.2995233 72 71 C72 71.66 72 72.32 72 73 C73.65 73.66 75.3 74.32 77 75 C77 75.66 77 76.32 77 77 C77.66 77 78.32 77 79 77 C79 77.66 79 78.32 79 79 C79.66 79 80.32 79 81 79 C81 79.66 81 80.32 81 81 C81.66 81 82.32 81 83 81 C83.268125 81.61875 83.53625 82.2375 83.8125 82.875 C84.95556848 85.2995233 84.95556848 85.2995233 88 87 C88 87.66 88 88.32 88 89 C89.65 89.66 91.3 90.32 93 91 C93 91.66 93 92.32 93 93 C93.66 93 94.32 93 95 93 C96.35803676 94.71659432 97.49830258 96.53184882 98.68359375 98.37109375 C100.00013286 100.29953716 100.00013286 100.29953716 103 101 C103 101.66 103 102.32 103 103 C103.58652344 103.23332031 104.17304688 103.46664062 104.77734375 103.70703125 C111.06492137 107.36465549 114.37092733 115.48991529 117 122 C117.62519531 122.91652344 118.25039063 123.83304687 118.89453125 124.77734375 C121.02867365 128.04388824 122.5123298 131.21055939 124 134.8125 C125.61727409 138.71693104 127.2667592 142.5780434 129.125 146.375 C130.96123011 150.47002363 132.09130946 154.72254127 133.1875 159.0625 C133.35459473 159.72362793 133.52168945 160.38475586 133.69384766 161.06591797 C135.92504482 170.33308393 136.15843059 179.33887845 136.13037109 188.8359375 C136.12501275 190.9948631 136.13034012 193.15358073 136.13671875 195.3125 C136.14522555 211.02988477 136.14522555 211.02988477 134.0625 218.25 C133.14463314 221.48953009 132.60423951 224.49175187 132.125 227.8125 C131.21798872 233.61298341 129.42773116 238.67313357 127 244 C126.34 244 125.68 244 125 244 C124.79117188 244.87591797 124.79117188 244.87591797 124.578125 245.76953125 C122.99297731 251.88520239 120.46442307 257.25430678 117.3203125 262.6953125 C116.42707207 264.25451917 115.56830258 265.83389999 114.7421875 267.4296875 C112.39992904 271.92269902 110.4291297 275.24675722 106 278 C105.34 278 104.68 278 104 278 C104 278.66 104 279.32 104 280 C103.34 280 102.68 280 102 280 C102 280.66 102 281.32 102 282 C101.38125 282.185625 100.7625 282.37125 100.125 282.5625 C97.65401725 283.8729306 97.65401725 283.8729306 97.375 287.0625 C94.83758804 297.38273015 79.601705 304.74663865 71 310 C40.23324233 328.52128198 2.84840997 333.75352134 -32.0144043 325.42749023 C-55.58947044 319.44405531 -74.97527912 308.38946481 -92.8359375 291.91796875 C-95.04871601 289.86875769 -95.04871601 289.86875769 -98 288 C-98 287.34 -98 286.68 -98 286 C-98.66 286 -99.32 286 -100 286 C-103.50901838 282.30629644 -105.69920326 278.75209547 -107.8515625 274.171875 C-109.12539637 271.76285585 -110.62703041 269.68843864 -112.25 267.5 C-123.41327042 251.90495914 -129.4548714 233.66193149 -133 215 C-133.22816406 213.80246094 -133.45632812 212.60492188 -133.69140625 211.37109375 C-138.92805342 179.76811115 -131.71468366 145.70970438 -114 119 C-113.25363281 117.84371094 -113.25363281 117.84371094 -112.4921875 116.6640625 C-101.91106309 100.86905069 -88.01444258 87.73599666 -74.60000896 74.39722109 C-71.96586369 71.77575419 -69.33754954 69.14845277 -66.70855713 66.52182007 C-61.75120276 61.57063102 -56.78878251 56.62455307 -51.82442498 51.6803869 C-46.16364175 46.04211866 -40.50867667 40.39802986 -34.85414267 34.75349545 C-23.24246169 23.16260411 -11.62365941 11.57887929 0 0 Z " fill="#C6477E" transform="translate(249,113)"/>
<path d="M0 0 C5.67387222 4.68289272 11.23041581 9.43980737 16.33349609 14.74658203 C18.84791114 17.84614085 18.84791114 17.84614085 22.14599609 17.49658203 C21.04257211 20.80685399 20.27710565 21.46311565 17.65916443 23.61749268 C12.84584212 27.70537932 8.39764636 32.09719397 3.93530273 36.56201172 C3.05126266 37.44269318 2.1672226 38.32337463 1.25639343 39.23074341 C-1.14643482 41.62575072 -3.54700774 44.02297005 -5.94624782 46.42156887 C-7.45138082 47.92598661 -8.9572256 49.42968816 -10.46331978 50.93314362 C-15.73466111 56.19525943 -21.00343983 61.45992529 -26.26977539 66.72705078 C-31.1514404 71.6093159 -36.0386508 76.48598028 -40.92850775 81.36003947 C-45.14979135 85.5681785 -49.36714008 89.78023446 -53.58153826 93.99526906 C-56.08835616 96.50233991 -58.59664467 99.00789087 -61.10893059 101.50948334 C-63.91626704 104.30519363 -66.7153864 107.10904706 -69.51391602 109.91357422 C-70.32925812 110.72329681 -71.14460022 111.53301941 -71.98464966 112.36727905 C-86.10753378 126.56660825 -96.53755788 142.37523514 -104.85400391 160.49658203 C-105.33869141 161.55232422 -105.82337891 162.60806641 -106.32275391 163.69580078 C-119.08192473 194.0766313 -117.72239305 232.08523003 -105.85400391 262.49658203 C-100.51484321 274.90101186 -93.44055442 286.35888021 -85.85400391 297.49658203 C-86.18400391 298.15658203 -86.51400391 298.81658203 -86.85400391 299.49658203 C-100.36978073 286.09811874 -113.8708286 272.68497909 -127.35496998 259.25467682 C-133.61761459 253.01770604 -139.88481301 246.78544883 -146.16333008 240.56445312 C-151.64195425 235.13599776 -157.11143777 229.69851757 -162.57057017 224.25045824 C-165.45578361 221.3717074 -168.34507897 218.49736954 -171.24540138 215.63383484 C-194.38411511 192.77732653 -194.38411511 192.77732653 -202.85400391 178.49658203 C-203.41967575 177.5620369 -203.9853476 176.62749176 -204.56816101 175.66462708 C-205.84315154 173.51457883 -207.02386571 171.34438435 -208.16650391 169.12158203 C-208.57328369 168.33614014 -208.98006348 167.55069824 -209.39916992 166.74145508 C-225.24315071 135.21410631 -227.24033228 97.14073258 -216.35791016 63.71923828 C-210.37703595 46.44789701 -201.72864957 31.40029337 -189.85400391 17.49658203 C-188.84273437 16.28421875 -188.84273437 16.28421875 -187.81103516 15.04736328 C-140.89176909 -39.39265945 -55.01064326 -44.60831461 0 0 Z " fill="#B60552" transform="translate(229.85400390625,92.50341796875)"/>
<path d="M0 0 C0.66 0 1.32 0 2 0 C2.66 0.66 3.32 1.32 4 2 C7.08347826 2.16681109 7.08347826 2.16681109 10 2 C5.69849478 7.13812825 1.19337975 11.9538552 -3.55078125 16.68359375 C-4.25019333 17.38396255 -4.94960541 18.08433136 -5.67021179 18.80592346 C-7.13544009 20.27182762 -8.60191334 21.73648839 -10.06958008 23.19995117 C-12.32685682 25.45182244 -14.57868445 27.7090454 -16.83007812 29.96679688 C-18.25749154 31.39355035 -19.68521465 32.81999406 -21.11328125 34.24609375 C-21.78925858 34.92409531 -22.4652359 35.60209686 -23.16169739 36.30064392 C-23.78291977 36.91871414 -24.40414215 37.53678436 -25.04418945 38.17358398 C-25.59234818 38.72094711 -26.1405069 39.26831024 -26.70527649 39.83226013 C-28 41 -28 41 -29 41 C-29.125 38.625 -29.125 38.625 -29 36 C-28.34 35.34 -27.68 34.68 -27 34 C-26.01 34 -25.02 34 -24 34 C-24 33.34 -24 32.68 -24 32 C-23.34 32 -22.68 32 -22 32 C-22 31.34 -22 30.68 -22 30 C-17.52941176 26 -17.52941176 26 -15 26 C-14.89300781 25.44570313 -14.78601563 24.89140625 -14.67578125 24.3203125 C-13.86948232 21.55186417 -12.65139928 19.35806967 -11.1875 16.875 C-10.68605469 16.00617188 -10.18460937 15.13734375 -9.66796875 14.2421875 C-8 12 -8 12 -5.90625 10.98046875 C-3.8040044 10.14300165 -3.8040044 10.14300165 -2.98828125 7.87109375 C-2.65376953 6.66646484 -2.65376953 6.66646484 -2.3125 5.4375 C-1.05829596 1.05829596 -1.05829596 1.05829596 0 0 Z " fill="#874562" transform="translate(375,361)"/>
<path d="M0 0 C0.33 0 0.66 0 1 0 C1 2.64 1 5.28 1 8 C0.01 8.33 -0.98 8.66 -2 9 C-2.33 11.97 -2.66 14.94 -3 18 C-3.66 18 -4.32 18 -5 18 C-5.12117187 19.03898437 -5.24234375 20.07796875 -5.3671875 21.1484375 C-6.19024446 28.05200386 -7.02660392 34.89668706 -8.53515625 41.69140625 C-9.73002984 47.6256104 -10.1583084 53.34617978 -10.125 59.375 C-10.12886719 60.09816406 -10.13273438 60.82132813 -10.13671875 61.56640625 C-10.44888171 65.07495076 -10.44888171 65.07495076 -9 68 C-8.84193469 69.92478813 -8.748865 71.8549921 -8.68359375 73.78515625 C-8.64169922 74.95498047 -8.59980469 76.12480469 -8.55664062 77.33007812 C-8.51732422 78.56177734 -8.47800781 79.79347656 -8.4375 81.0625 C-8.39431641 82.29806641 -8.35113281 83.53363281 -8.30664062 84.80664062 C-8.20015802 87.87097335 -8.09814576 90.93539073 -8 94 C-18.97083298 73.92546911 -13.69867031 40.90154298 -7.625 20 C-5.54066228 13.14552023 -2.95579422 6.52790299 0 0 Z " fill="#6B0933" transform="translate(20,140)"/>
<path d="M0 0 C3.69327642 1.23109214 3.95470751 2.1836101 5.8125 5.5 C8.6762121 10.48099298 11.76639214 15.25278846 15 20 C14.67 20.66 14.34 21.32 14 22 C11.15862758 19.21641519 8.32831845 16.42184273 5.5 13.625 C4.68917969 12.8309375 3.87835938 12.036875 3.04296875 11.21875 C2.27597656 10.45820313 1.50898438 9.69765625 0.71875 8.9140625 C-0.34956055 7.8614624 -0.34956055 7.8614624 -1.43945312 6.78759766 C-3 5 -3 5 -3 3 C-2.01 3 -1.02 3 0 3 C0 2.01 0 1.02 0 0 Z " fill="#990E49" transform="translate(129,370)"/>
<path d="M0 0 C-1.53786831 3.6531577 -3.73948958 5.983949 -6.53515625 8.765625 C-7.42654297 9.65507812 -8.31792969 10.54453125 -9.23632812 11.4609375 C-10.6352832 12.84152344 -10.6352832 12.84152344 -12.0625 14.25 C-13.00886639 15.1949092 -13.95483436 16.14021762 -14.90039062 17.0859375 C-21.85980776 24 -21.85980776 24 -23 24 C-23.125 21.625 -23.125 21.625 -23 19 C-22.34 18.34 -21.68 17.68 -21 17 C-20.01 17 -19.02 17 -18 17 C-18 16.34 -18 15.68 -18 15 C-17.34 15 -16.68 15 -16 15 C-16 14.34 -16 13.68 -16 13 C-11.52941176 9 -11.52941176 9 -9 9 C-8.938125 8.443125 -8.87625 7.88625 -8.8125 7.3125 C-7.31059735 3.03785401 -4.59925477 0 0 0 Z " fill="#7C3C58" transform="translate(369,378)"/>
<path d="M0 0 C0.33 0 0.66 0 1 0 C1.06058594 1.14339844 1.12117187 2.28679687 1.18359375 3.46484375 C1.26798428 4.95574305 1.35263302 6.44662775 1.4375 7.9375 C1.47681641 8.69224609 1.51613281 9.44699219 1.55664062 10.22460938 C1.44038024 13.91944187 1.44038024 13.91944187 3 17 C3.15806531 18.92478813 3.251135 20.8549921 3.31640625 22.78515625 C3.37924805 24.53989258 3.37924805 24.53989258 3.44335938 26.33007812 C3.48267578 27.56177734 3.52199219 28.79347656 3.5625 30.0625 C3.60568359 31.29806641 3.64886719 32.53363281 3.69335938 33.80664062 C3.79984198 36.87097335 3.90185424 39.93539073 4 43 C-1.01429022 34.0242889 -0.26553709 22.70651222 -0.125 12.75 C-0.11597656 11.51636719 -0.10695313 10.28273437 -0.09765625 9.01171875 C-0.07436851 6.00759976 -0.04166756 3.00391057 0 0 Z " fill="#7F0D3E" transform="translate(8,191)"/>
<path d="M0 0 C1.32 0.66 2.64 1.32 4 2 C-7.0968041 6.20913259 -18.15780287 9.62300033 -30 11 C-30 10.34 -30 9.68 -30 9 C-28.35 9 -26.7 9 -25 9 C-25 8.34 -25 7.68 -25 7 C-24.03320312 6.81824219 -23.06640625 6.63648438 -22.0703125 6.44921875 C-14.57313977 5.01149727 -7.259233 3.4083573 0 1 C0 0.67 0 0.34 0 0 Z " fill="#76314E" transform="translate(298,430)"/>
<path d="M0 0 C2.96865509 2.54456151 4.3619751 5.48994665 6 9 C5.34 9 4.68 9 4 9 C4 9.99 4 10.98 4 12 C2.68 12.33 1.36 12.66 0 13 C-1.65 11.02 -3.3 9.04 -5 7 C-4.34 7 -3.68 7 -3 7 C-2.01 4.69 -1.02 2.38 0 0 Z " fill="#A4094D" transform="translate(125,361)"/>
<path d="M0 0 C0.66 0.33 1.32 0.66 2 1 C0 4 0 4 -3 5 C-4.84133105 6.98231463 -6.49610866 9.07342472 -8.18359375 11.1875 C-10.23548965 13.23498322 -11.26644666 13.32575835 -14 14 C-16.20149485 15.8394603 -16.20149485 15.8394603 -18.25 18.0625 C-18.95640625 18.79597656 -19.6628125 19.52945313 -20.390625 20.28515625 C-21.18726563 21.13400391 -21.18726563 21.13400391 -22 22 C-22 19 -22 19 -20.48828125 17.08984375 C-14.09411737 10.76455775 -7.21418635 5.34095094 0 0 Z " fill="#710936" transform="translate(65,87)"/>
<path d="M0 0 C7.04072777 3.53737047 12.97993271 7.93509996 19 13 C15.93109813 14.53445094 13.29905734 13.54984289 10 13 C10 12.01 10 11.02 10 10 C9.34 9.67 8.68 9.34 8 9 C8 8.34 8 7.68 8 7 C7.34 7 6.68 7 6 7 C6 6.34 6 5.68 6 5 C4.68 4.67 3.36 4.34 2 4 C2 3.34 2 2.68 2 2 C1.34 2 0.68 2 0 2 C0 1.34 0 0.68 0 0 Z " fill="#6E3D53" transform="translate(426,82)"/>
<path d="M0 0 C0.33 0 0.66 0 1 0 C1 2.64 1 5.28 1 8 C0.01 8.33 -0.98 8.66 -2 9 C-2.33 11.97 -2.66 14.94 -3 18 C-3.66 18 -4.32 18 -5 18 C-5.12375 18.598125 -5.2475 19.19625 -5.375 19.8125 C-6 22 -6 22 -8 25 C-7.43375164 19.05837993 -5.6793942 14.07178852 -3.4375 8.5625 C-3.10814453 7.73556641 -2.77878906 6.90863281 -2.43945312 6.05664062 C-1.63314164 4.03501907 -0.81751877 2.01711551 0 0 Z " fill="#760A38" transform="translate(20,140)"/>
<path d="M0 0 C6.45049061 0.71672118 10.43315467 7.59398165 14.3515625 12.23046875 C16.07423737 14.21611689 16.07423737 14.21611689 19 16 C19 16.66 19 17.32 19 18 C15.56086948 17.43790555 14.19798944 16.47112228 12.0625 13.75 C8.85673609 9.80133866 5.33144977 6.29546464 1.6875 2.75 C0 1 0 1 0 0 Z " fill="#A84773" transform="translate(295,158)"/>
<path d="M0 0 C0.66 0 1.32 0 2 0 C3.59138085 4.17737474 4.21278058 7.53160785 4 12 C4.66 12 5.32 12 6 12 C6.12375 12.969375 6.2475 13.93875 6.375 14.9375 C6.684375 16.4534375 6.684375 16.4534375 7 18 C7.66 18.33 8.32 18.66 9 19 C8.34 19.99 7.68 20.98 7 22 C6.01083967 19.64960987 5.03363319 17.29533139 4.0625 14.9375 C3.78470703 14.28072266 3.50691406 13.62394531 3.22070312 12.94726562 C1.44318052 8.59983081 0.4802742 4.67507417 0 0 Z " fill="#6B0A34" transform="translate(12,234)"/>
<path d="M0 0 C5.06316683 -0.15639125 9.50398438 0.37233929 14.4375 1.5 C15.67371094 1.7784375 16.90992188 2.056875 18.18359375 2.34375 C19.57771484 2.66859375 19.57771484 2.66859375 21 3 C21 3.33 21 3.66 21 4 C14.07 3.67 7.14 3.34 0 3 C0 2.01 0 1.02 0 0 Z " fill="#790B3A" transform="translate(160,64)"/>
<path d="M0 0 C3.09338799 1.03112933 3.98220066 1.5645379 6 4 C7.203125 6.41015625 7.203125 6.41015625 8.25 9.0625 C8.78367187 10.37927734 8.78367187 10.37927734 9.328125 11.72265625 C10 14 10 14 9 16 C7.49445366 13.71180854 5.99542957 11.41978831 4.5 9.125 C4.07074219 8.47402344 3.64148438 7.82304687 3.19921875 7.15234375 C0 2.2265625 0 2.2265625 0 0 Z " fill="#730B39" transform="translate(24,264)"/>
<path d="M0 0 C0.66 0.33 1.32 0.66 2 1 C1.67 2.32 1.34 3.64 1 5 C-0.66666667 5 -2.33333333 5 -4 5 C-4.103125 5.639375 -4.20625 6.27875 -4.3125 6.9375 C-4.539375 7.618125 -4.76625 8.29875 -5 9 C-5.99 9.33 -6.98 9.66 -8 10 C-8.66 9.34 -9.32 8.68 -10 8 C-6.7 5.36 -3.4 2.72 0 0 Z " fill="#743F54" transform="translate(277,87)"/>
<path d="M0 0 C3.88997191 1.49746706 5.46948052 3.70422078 7.75 7.125 C8.67039062 8.49011719 8.67039062 8.49011719 9.609375 9.8828125 C10.29773438 10.93082031 10.29773438 10.93082031 11 12 C10.67 12.66 10.34 13.32 10 14 C9.67 13.01 9.34 12.02 9 11 C8.34 11 7.68 11 7 11 C6.67 10.34 6.34 9.68 6 9 C5.01 8.67 4.02 8.34 3 8 C2.05078125 6.15234375 2.05078125 6.15234375 1.3125 3.9375 C1.06113281 3.20402344 0.80976563 2.47054687 0.55078125 1.71484375 C0.36902344 1.14894531 0.18726563 0.58304688 0 0 Z " fill="#B04A77" transform="translate(352,216)"/>
<path d="M0 0 C4.60579924 2.30289962 7.68094777 5.62826072 11.1328125 9.35546875 C12.96052552 11.33047318 12.96052552 11.33047318 16 11 C15.67 11.99 15.34 12.98 15 14 C12 14 12 14 10.31640625 12.3203125 C9.73761719 11.59585938 9.15882813 10.87140625 8.5625 10.125 C6.1967289 7.17175553 4.38967425 5.6258823 1 4 C0.25 1.875 0.25 1.875 0 0 Z " fill="#5C0C2E" transform="translate(236,99)"/>
<path d="M0 0 C0.66 0 1.32 0 2 0 C2.33 0.66 2.66 1.32 3 2 C5.0152907 2.48757033 7.03140054 2.97253596 9.0546875 3.42578125 C11.36735096 4.10843492 12.58333391 5.05208413 14 7 C11 8 11 8 8.08203125 6.78515625 C6.46361328 5.93244141 6.46361328 5.93244141 4.8125 5.0625 C3.72582031 4.49660156 2.63914063 3.93070312 1.51953125 3.34765625 C0.68808594 2.90292969 -0.14335937 2.45820313 -1 2 C-0.67 1.34 -0.34 0.68 0 0 Z " fill="#762B4A" transform="translate(186,424)"/>
<path d="M0 0 C0.33 0 0.66 0 1 0 C3.29612756 11.52164009 3.29612756 11.52164009 3 17 C2.34 17 1.68 17 1 17 C-0.53266582 13.93466836 -0.10276471 10.73245728 -0.0625 7.375 C-0.05798828 6.66859375 -0.05347656 5.9621875 -0.04882812 5.234375 C-0.03703875 3.48954725 -0.01910324 1.744763 0 0 Z " fill="#5B3346" transform="translate(489,171)"/>
<path d="M0 0 C3.83663072 1.34929464 6.65172569 3.07751025 9.8125 5.625 C10.99779297 6.57246094 10.99779297 6.57246094 12.20703125 7.5390625 C12.79871094 8.02117187 13.39039063 8.50328125 14 9 C12.68 9.33 11.36 9.66 10 10 C10 9.34 10 8.68 10 8 C8.68 7.67 7.36 7.34 6 7 C6 6.34 6 5.68 6 5 C5.38125 4.9175 4.7625 4.835 4.125 4.75 C2 4 2 4 0.75 1.9375 C0.5025 1.298125 0.255 0.65875 0 0 Z " fill="#6F0B35" transform="translate(218,85)"/>
<path d="M0 0 C1 3 1 3 0.0625 5.1875 C-0.4634375 6.0846875 -0.4634375 6.0846875 -1 7 C-1.66 7 -2.32 7 -3 7 C-3.0825 7.61875 -3.165 8.2375 -3.25 8.875 C-4 11 -4 11 -6.0625 12.25 C-6.701875 12.4975 -7.34125 12.745 -8 13 C-6.53181332 9.89257577 -4.79975 7.09528261 -2.875 4.25 C-2.33617187 3.45078125 -1.79734375 2.6515625 -1.2421875 1.828125 C-0.62730469 0.92320312 -0.62730469 0.92320312 0 0 Z " fill="#CE3D7C" transform="translate(142,222)"/>
<path d="M0 0 C0.33 0 0.66 0 1 0 C1.55877857 4.47022854 0.0713462 7.23645222 -2.02734375 11.03515625 C-3.007061 13.01426378 -3.54418952 14.84569571 -4 17 C-4.66 17 -5.32 17 -6 17 C-5.34496718 12.94180817 -4.05440879 9.46028718 -2.4375 5.6875 C-1.75494141 4.08455078 -1.75494141 4.08455078 -1.05859375 2.44921875 C-0.53458984 1.23685547 -0.53458984 1.23685547 0 0 Z " fill="#CD3B7A" transform="translate(127,246)"/>
<path d="M0 0 C5.75 0.875 5.75 0.875 8 2 C8 3.98 8 5.96 8 8 C6.85073734 7.04578192 5.70569459 6.08647955 4.5625 5.125 C3.92441406 4.59132813 3.28632812 4.05765625 2.62890625 3.5078125 C1 2 1 2 0 0 Z " fill="#8E0A43" transform="translate(80,328)"/>
<path d="M0 0 C4.83628305 0.99043705 9.47618873 1.95698846 14 4 C14 4.33 14 4.66 14 5 C8.76389884 5.31416607 5.48507697 4.77647622 1 2 C0.67 1.34 0.34 0.68 0 0 Z " fill="#750C37" transform="translate(181,68)"/>
<path d="M0 0 C-1 2 -1 2 -4.0625 3.125 C-8.09858291 4.19682285 -11.84184728 4.1459001 -16 4 C-11.17353323 0.78235549 -5.80178176 -0.36261136 0 0 Z " fill="#680B33" transform="translate(120,65)"/>
<path d="M0 0 C0.12375 0.639375 0.2475 1.27875 0.375 1.9375 C0.684375 2.9584375 0.684375 2.9584375 1 4 C1.66 4.33 2.32 4.66 3 5 C3 5.66 3 6.32 3 7 C-1.43090471 5.79157144 -3.98112756 4.48331435 -7 1 C-2.25 0 -2.25 0 0 0 Z " fill="#842E52" transform="translate(182,418)"/>
<path d="M0 0 C1.13199353 0.9080162 2.25532363 1.82683826 3.375 2.75 C4.00148438 3.26046875 4.62796875 3.7709375 5.2734375 4.296875 C7.08312318 6.08199481 8.00117455 7.67949644 9 10 C6.69 9.01 4.38 8.02 2 7 C2 6.01 2 5.02 2 4 C1.34 4 0.68 4 0 4 C0 2.68 0 1.36 0 0 Z " fill="#65394D" transform="translate(454,105)"/>
<path d="M0 0 C-1.20727327 3.62181982 -2.59418688 5.29709344 -6 7 C-7.66619446 7.0396713 -9.33391013 7.04384447 -11 7 C-4.48275862 0 -4.48275862 0 0 0 Z " fill="#6B3C50" transform="translate(290,80)"/>
<path d="M0 0 C2.31 0.66 4.62 1.32 7 2 C7.33 3.98 7.66 5.96 8 8 C6.85073734 7.04578192 5.70569459 6.08647955 4.5625 5.125 C3.92441406 4.59132813 3.28632812 4.05765625 2.62890625 3.5078125 C1 2 1 2 0 0 Z " fill="#8C0A41" transform="translate(96,344)"/>
<path d="M0 0 C2.31 0.66 4.62 1.32 7 2 C7.33 3.98 7.66 5.96 8 8 C6.85073734 7.04578192 5.70569459 6.08647955 4.5625 5.125 C3.92441406 4.59132813 3.28632812 4.05765625 2.62890625 3.5078125 C1 2 1 2 0 0 Z " fill="#890B40" transform="translate(88,336)"/>
<path d="M0 0 C2.31 0.66 4.62 1.32 7 2 C7.33 3.98 7.66 5.96 8 8 C6.85073734 7.04578192 5.70569459 6.08647955 4.5625 5.125 C3.92441406 4.59132813 3.28632812 4.05765625 2.62890625 3.5078125 C1 2 1 2 0 0 Z " fill="#870B40" transform="translate(72,320)"/>
<path d="M0 0 C1.32 0.33 2.64 0.66 4 1 C4.33 2.32 4.66 3.64 5 5 C5.99 5 6.98 5 8 5 C8.33 6.65 8.66 8.3 9 10 C7.86800647 9.0919838 6.74467637 8.17316174 5.625 7.25 C4.99851562 6.73953125 4.37203125 6.2290625 3.7265625 5.703125 C1.91687682 3.91800519 0.99882545 2.32050356 0 0 Z " fill="#750B38" transform="translate(37,284)"/>
<path d="M0 0 C1.13864162 3.41592487 0.84292788 4.21442309 -0.3125 7.5 C-0.57675781 8.2734375 -0.84101563 9.046875 -1.11328125 9.84375 C-2 12 -2 12 -4 15 C-4.6875 12.8125 -4.6875 12.8125 -5 10 C-3.6875 7.5 -3.6875 7.5 -2 5 C-1.30177383 3.34630643 -0.62501395 1.68272986 0 0 Z " fill="#A14870" transform="translate(373,360)"/>
<path d="M0 0 C1.32 0 2.64 0 4 0 C4.33 0.66 4.66 1.32 5 2 C5.66 2 6.32 2 7 2 C7.33 3.98 7.66 5.96 8 8 C6.85073734 7.04578192 5.70569459 6.08647955 4.5625 5.125 C3.92441406 4.59132813 3.28632812 4.05765625 2.62890625 3.5078125 C1 2 1 2 0 0 Z " fill="#880A40" transform="translate(64,312)"/>
<path d="M0 0 C0 3.25811062 -0.5522078 5.10441559 -2 8 C-2.99 8.33 -3.98 8.66 -5 9 C-5 9.99 -5 10.98 -5 12 C-5.66 12 -6.32 12 -7 12 C-5.44298069 7.32894208 -2.91552627 3.91294315 0 0 Z " fill="#6E0B36" transform="translate(33,119)"/>
<path d="M0 0 C0.33 0.99 0.66 1.98 1 3 C-1.22592999 6.38011591 -3.21282653 8.51218185 -7 10 C-5.33248852 6.05860922 -2.77289351 3.2107188 0 0 Z " fill="#780A3A" transform="translate(41,109)"/>
<path d="M0 0 C2.4375 0.75 2.4375 0.75 5 2 C5.3721042 3.32303717 5.70630173 4.65737935 6 6 C7.9837767 7.28436734 7.9837767 7.28436734 10 8 C10 8.99 10 9.98 10 11 C5.58690458 7.84778899 2.99206986 4.44536093 0 0 Z " fill="#A94773" transform="translate(268,131)"/>
<path d="M0 0 C0.99 0.66 1.98 1.32 3 2 C-0.465 4.97 -0.465 4.97 -4 8 C-4.33 6.35 -4.66 4.7 -5 3 C-4.01 3 -3.02 3 -2 3 C-1.67 2.34 -1.34 1.68 -1 1 C-0.67 0.67 -0.34 0.34 0 0 Z " fill="#733B53" transform="translate(406,338)"/>
<path d="M0 0 C0.99 0.66 1.98 1.32 3 2 C0.03 4.475 0.03 4.475 -3 7 C-3.33 5.68 -3.66 4.36 -4 3 C-2.68 2.01 -1.36 1.02 0 0 Z " fill="#6E3D51" transform="translate(461,282)"/>
<path d="M0 0 C4.39750672 0.50740462 6.86948922 3.08293314 10 6 C10 6.66 10 7.32 10 8 C4.98886765 6.5682479 3.05530451 4.01554307 0 0 Z " fill="#AA4874" transform="translate(332,196)"/>
<path d="M0 0 C4.39750672 0.50740462 6.86948922 3.08293314 10 6 C10 6.66 10 7.32 10 8 C4.98886765 6.5682479 3.05530451 4.01554307 0 0 Z " fill="#AA4874" transform="translate(316,180)"/>
<path d="M0 0 C3.82097239 0.53069061 6.06171403 1.49701566 9 4 C5.71023192 5.09658936 4.28696233 4.79953138 1 4 C0.67 2.68 0.34 1.36 0 0 Z " fill="#663C4E" transform="translate(407,73)"/>
<path d="M0 0 C0.99 0 1.98 0 3 0 C2.60196439 2.88575819 2.20990931 3.82189513 -0.0625 5.75 C-0.701875 6.1625 -1.34125 6.575 -2 7 C-2.125 4.625 -2.125 4.625 -2 2 C-1.34 1.34 -0.68 0.68 0 0 Z " fill="#954365" transform="translate(348,395)"/>
<path d="M0 0 C0.66 0 1.32 0 2 0 C2 0.66 2 1.32 2 2 C2.99 2.33 3.98 2.66 5 3 C5 3.99 5 4.98 5 6 C6.32 6.66 7.64 7.32 9 8 C9 8.99 9 9.98 9 11 C4.47951843 7.86077669 2.48454089 4.78504172 0 0 Z " fill="#A94773" transform="translate(285,147)"/>
<path d="M0 0 C3 0 3 0 6 1 C0.25 6 0.25 6 -2 6 C-2 5.01 -2 4.02 -2 3 C-1.34 3 -0.68 3 0 3 C0 2.01 0 1.02 0 0 Z " fill="#86385B" transform="translate(331,410)"/>
<path d="M0 0 C0.66 0 1.32 0 2 0 C1.01 3.3 0.02 6.6 -1 10 C-1.66 9.01 -2.32 8.02 -3 7 C-1.59459459 1.59459459 -1.59459459 1.59459459 0 0 Z " fill="#5F3649" transform="translate(482,246)"/>
<path d="M0 0 C1.48280196 0.78483659 2.9611498 1.57809334 4.4375 2.375 C5.67306641 3.03628906 5.67306641 3.03628906 6.93359375 3.7109375 C9 5 9 5 10 7 C8.68 7 7.36 7 6 7 C6 6.34 6 5.68 6 5 C4.68 4.67 3.36 4.34 2 4 C2 3.34 2 2.68 2 2 C1.34 2 0.68 2 0 2 C0 1.34 0 0.68 0 0 Z " fill="#572F3F" transform="translate(426,82)"/>
<path d="M0 0 C0.99 0 1.98 0 3 0 C1.60667426 3.36720387 0.0210714 4.9859524 -3 7 C-2.25 2.25 -2.25 2.25 0 0 Z " fill="#6F4055" transform="translate(366,378)"/>
<path d="M0 0 C0.33 0 0.66 0 1 0 C1.33 3.3 1.66 6.6 2 10 C1.34 10 0.68 10 0 10 C-0.19412181 8.52168779 -0.38012131 7.04230684 -0.5625 5.5625 C-0.66691406 4.73878906 -0.77132812 3.91507812 -0.87890625 3.06640625 C-0.91886719 2.38449219 -0.95882812 1.70257813 -1 1 C-0.67 0.67 -0.34 0.34 0 0 Z " fill="#B31358" transform="translate(115,322)"/>
<path d="M0 0 C1.65 1.65 3.3 3.3 5 5 C4.67 5.66 4.34 6.32 4 7 C3.01 6.67 2.02 6.34 1 6 C1 5.34 1 4.68 1 4 C0.34 4 -0.32 4 -1 4 C-0.67 2.68 -0.34 1.36 0 0 Z " fill="#69374E" transform="translate(463,115)"/>
<path d="M0 0 C3.77545388 1.09068668 6.47043472 1.9083091 9 5 C6.625 5.125 6.625 5.125 4 5 C3.34 4.34 2.68 3.68 2 3 C1.34 3 0.68 3 0 3 C0 2.01 0 1.02 0 0 Z " fill="#65374C" transform="translate(416,77)"/>
<path d="M0 0 C0.99 0.66 1.98 1.32 3 2 C0.03 4.475 0.03 4.475 -3 7 C-3 5.02 -3 3.04 -3 1 C-2.01 0.67 -1.02 0.34 0 0 Z " fill="#743A53" transform="translate(390,354)"/>
<path d="M0 0 C2.625 0.375 2.625 0.375 5 1 C3.35 2.65 1.7 4.3 0 6 C0 5.01 0 4.02 0 3 C-0.66 2.67 -1.32 2.34 -2 2 C-1.34 1.34 -0.68 0.68 0 0 Z " fill="#733C55" transform="translate(436,306)"/>
<path d="M0 0 C2.625 0.375 2.625 0.375 5 1 C3.35 2.65 1.7 4.3 0 6 C-0.66 4.68 -1.32 3.36 -2 2 C-1.34 1.34 -0.68 0.68 0 0 Z " fill="#713D54" transform="translate(444,298)"/>
<path d="M0 0 C1.79068573 2.6860286 2.66055791 4.6626589 3.625 7.6875 C3.88539062 8.49574219 4.14578125 9.30398438 4.4140625 10.13671875 C4.60742188 10.75160156 4.80078125 11.36648438 5 12 C2.69857565 10.21825212 1.19965609 8.83695835 0.51171875 5.953125 C0.27676898 3.9753389 0.13248542 1.98728128 0 0 Z " fill="#840C41" transform="translate(29,268)"/>
<path d="M0 0 C0.33 0.66 0.66 1.32 1 2 C0.67 2.66 0.34 3.32 0 4 C-0.66 4 -1.32 4 -2 4 C-2.66 5.32 -3.32 6.64 -4 8 C-4.99 7.67 -5.98 7.34 -7 7 C-4.69 4.69 -2.38 2.38 0 0 Z " fill="#A80E4F" transform="translate(52,99)"/>
<path d="M0 0 C2.31 0 4.62 0 7 0 C3.49461443 1.96301592 -0.13351728 2.95902388 -4 4 C-4.33 3.34 -4.66 2.68 -5 2 C-3.35 2 -1.7 2 0 2 C0 1.34 0 0.68 0 0 Z " fill="#8A3456" transform="translate(273,437)"/>
<path d="M0 0 C1.32 0.66 2.64 1.32 4 2 C3.01 2.495 3.01 2.495 2 3 C2 3.99 2 4.98 2 6 C1.01 6 0.02 6 -1 6 C-0.67 4.02 -0.34 2.04 0 0 Z " fill="#B50855" transform="translate(127,367)"/>
<path d="M0 0 C0.33 0 0.66 0 1 0 C1.25 2.75 1.25 2.75 1 6 C-1 8.375 -1 8.375 -3 10 C-2.69201674 8.51988629 -2.378482 7.04092675 -2.0625 5.5625 C-1.88847656 4.73878906 -1.71445312 3.91507812 -1.53515625 3.06640625 C-1 1 -1 1 0 0 Z " fill="#A1466F" transform="translate(379,347)"/>
<path d="M0 0 C1.2065625 0.0309375 1.2065625 0.0309375 2.4375 0.0625 C0.7875 1.7125 -0.8625 3.3625 -2.5625 5.0625 C-3.125 3.125 -3.125 3.125 -3.5625 1.0625 C-2.5625 0.0625 -2.5625 0.0625 0 0 Z " fill="#703F55" transform="translate(430.5625,314.9375)"/>
<path d="M0 0 C2.18975773 3.28463659 2.99806563 6.20696275 4 10 C3.01 9.67 2.02 9.34 1 9 C0.67 6.03 0.34 3.06 0 0 Z " fill="#5C3347" transform="translate(481,145)"/>
<path d="M0 0 C0 3.57575896 -1.08840607 5.05295935 -3 8 C-4.32 7.67 -5.64 7.34 -7 7 C-4.69 4.69 -2.38 2.38 0 0 Z " fill="#51273C" transform="translate(259,102)"/>
<path d="M0 0 C0.66 0.33 1.32 0.66 2 1 C1.67 1.66 1.34 2.32 1 3 C-1.06640625 3.4140625 -1.06640625 3.4140625 -3.5625 3.625 C-4.38878906 3.69976562 -5.21507813 3.77453125 -6.06640625 3.8515625 C-7.02353516 3.92503906 -7.02353516 3.92503906 -8 4 C-5.31143836 2.20762558 -3.0466145 1.01553817 0 0 Z " fill="#6F0C37" transform="translate(93,72)"/>
<path d="M0 0 C2.97 0.495 2.97 0.495 6 1 C6 2.65 6 4.3 6 6 C3.97945196 4.35830472 1.97956942 2.69088222 0 1 C0 0.67 0 0.34 0 0 Z " fill="#880A40" transform="translate(112,360)"/>
<path d="M0 0 C1.65 0 3.3 0 5 0 C3.35 1.98 1.7 3.96 0 6 C-1.125 2.25 -1.125 2.25 0 0 Z " fill="#683B50" transform="translate(420,323)"/>
<path d="M0 0 C0.99 0.33 1.98 0.66 3 1 C2.34 2.65 1.68 4.3 1 6 C0.67 5.34 0.34 4.68 0 4 C-0.99 3.67 -1.98 3.34 -3 3 C-2.01 2.01 -1.02 1.02 0 0 Z " fill="#763B51" transform="translate(468,271)"/>
<path d="M0 0 C2.79872437 2.52788007 4.45773019 4.20411134 5 8 C2 7 2 7 0 4 C0 2.68 0 1.36 0 0 Z " fill="#60394A" transform="translate(468,122)"/>
<path d="M0 0 C3.68802044 1.22934015 4.72356973 2.93859378 7 6 C6.67 6.66 6.34 7.32 6 8 C1.2 4.55384615 1.2 4.55384615 0.1875 1.75 C0.125625 1.1725 0.06375 0.595 0 0 Z " fill="#A94873" transform="translate(256,118)"/>
<path d="M0 0 C0.66 0.33 1.32 0.66 2 1 C1.67 2.32 1.34 3.64 1 5 C-2 5 -2 5 -5 4 C-3.35 2.68 -1.7 1.36 0 0 Z " fill="#69384D" transform="translate(277,87)"/>
</svg>
